<?xml version="1.0" standalone="no"?>
<!DOCTYPE svg PUBLIC "-//W3C//DTD SVG 20010904//EN"
 "http://www.w3.org/TR/2001/REC-SVG-20010904/DTD/svg10.dtd">
<svg version="1.0" xmlns="http://www.w3.org/2000/svg"
 width="2048.000000pt" height="2048.000000pt" viewBox="0 0 2048.000000 2048.000000"
 preserveAspectRatio="xMidYMid meet">
<metadata>
Created by potrace 1.14, written by Peter Selinger 2001-2017
</metadata>
<g transform="translate(0.000000,2048.000000) scale(0.100000,-0.100000)"
fill="#000000" stroke="none">
<path d="M6918 19525 c-1 -2 -33 -6 -69 -9 -90 -9 -107 -12 -244 -46 -464
-115 -862 -401 -1222 -881 -234 -312 -448 -735 -591 -1169 -45 -135 -110 -364
-126 -440 -3 -14 -10 -45 -17 -70 -6 -25 -13 -55 -15 -67 -4 -25 -5 -28 -28
-148 -8 -44 -18 -96 -21 -115 -3 -19 -8 -42 -10 -50 -2 -8 -6 -35 -9 -60 -4
-25 -8 -56 -11 -70 -5 -31 -22 -166 -30 -240 -3 -30 -8 -71 -10 -90 -2 -19 -7
-69 -10 -110 -3 -41 -8 -95 -10 -120 -5 -56 -14 -226 -20 -387 l-5 -123 235 0
235 0 1 28 c2 48 19 234 25 267 1 11 8 56 14 101 6 44 13 91 16 105 9 44 35
174 40 199 12 62 67 247 103 348 61 170 181 406 264 514 329 432 774 690 1267
735 135 12 359 6 420 -12 8 -2 26 -6 40 -9 222 -40 471 -165 673 -339 140
-121 308 -311 403 -458 16 -24 31 -46 34 -49 3 -3 24 -34 46 -70 345 -552 657
-1392 920 -2475 35 -141 132 -568 140 -615 3 -14 14 -68 25 -120 25 -116 39
-187 44 -220 2 -14 10 -59 18 -100 14 -71 14 -77 -5 -120 -12 -25 -68 -146
-126 -270 -102 -219 -138 -297 -190 -410 -13 -30 -62 -135 -108 -233 -46 -99
-84 -180 -84 -182 0 -2 -29 -64 -65 -140 -36 -75 -65 -138 -65 -140 0 -2 -29
-65 -65 -140 -36 -75 -65 -138 -65 -139 0 -2 -29 -65 -65 -141 -36 -75 -65
-138 -65 -140 0 -2 -26 -59 -58 -127 -73 -152 -66 -138 -272 -583 -18 -38 -48
-104 -67 -145 -19 -41 -60 -129 -90 -195 -31 -66 -82 -176 -114 -244 -33 -67
-59 -124 -59 -126 0 -2 -27 -60 -60 -130 -33 -70 -60 -128 -60 -130 0 -1 -29
-64 -65 -140 -36 -75 -65 -138 -65 -139 0 -2 -24 -55 -54 -117 -29 -63 -65
-139 -79 -169 -14 -30 -41 -89 -60 -130 -19 -41 -79 -169 -132 -285 -54 -115
-112 -241 -130 -280 -18 -38 -134 -288 -258 -555 -124 -267 -244 -525 -267
-575 -23 -49 -51 -110 -62 -135 -12 -25 -45 -96 -74 -158 -30 -63 -54 -115
-54 -117 0 -1 -24 -54 -53 -116 -57 -121 -67 -142 -172 -369 -115 -247 -134
-289 -160 -342 -14 -28 -25 -58 -25 -65 0 -7 -4 -13 -10 -13 -5 0 -10 -8 -10
-18 0 -10 -4 -22 -9 -27 -4 -6 -29 -55 -54 -110 -42 -94 -84 -183 -155 -335
-26 -57 -290 -627 -384 -830 -113 -244 -498 -1071 -539 -1159 -27 -57 -49
-105 -49 -107 0 -2 -23 -52 -51 -111 -81 -170 -110 -234 -214 -458 -53 -115
-110 -237 -125 -270 -15 -33 -29 -64 -30 -70 0 -5 -7 -19 -14 -30 -7 -11 -34
-66 -59 -122 -26 -56 -63 -137 -83 -180 -20 -43 -50 -107 -67 -143 -16 -36
-47 -101 -67 -145 -34 -71 -117 -250 -187 -405 -14 -30 -27 -58 -29 -62 -3 -3
547 -7 1221 -7 l1225 0 25 55 c14 30 36 82 50 115 14 33 39 89 55 125 17 35
30 66 30 68 0 2 12 30 27 62 15 33 28 61 29 64 0 3 8 21 17 40 49 108 61 135
62 140 1 3 8 21 17 40 8 19 34 78 58 130 23 52 48 109 55 125 8 17 50 113 95
215 45 102 89 203 99 225 10 22 31 69 46 105 15 36 38 88 51 115 12 28 65 147
117 266 103 233 131 297 152 344 7 17 57 129 110 250 53 121 121 274 150 340
29 66 96 217 148 336 53 120 104 237 115 260 11 24 61 139 112 254 132 300
239 544 260 590 10 22 50 112 88 200 39 88 106 241 150 340 43 99 145 331 226
515 81 184 161 363 177 398 16 35 29 65 29 67 0 3 11 28 24 57 14 29 58 130
99 223 122 277 378 857 397 900 10 22 43 96 73 165 30 69 63 145 75 170 27 60
113 256 202 460 40 91 85 193 101 228 16 35 29 65 29 67 0 2 15 36 34 77 19
40 46 101 60 136 15 34 39 91 55 125 15 34 57 127 91 207 35 80 66 149 70 153
4 5 12 -15 18 -45 5 -29 33 -156 61 -283 29 -126 56 -248 61 -270 4 -22 17
-80 28 -130 11 -49 37 -164 57 -255 20 -91 38 -172 40 -180 2 -8 13 -55 23
-105 20 -88 90 -405 97 -435 18 -81 25 -109 29 -130 2 -14 25 -119 51 -235 26
-115 48 -217 50 -225 2 -8 20 -89 40 -180 34 -150 58 -261 69 -315 3 -11 17
-72 31 -135 14 -63 29 -126 31 -140 3 -14 21 -95 40 -180 19 -85 36 -164 38
-175 7 -32 56 -255 71 -320 8 -33 16 -71 19 -85 2 -14 18 -85 35 -159 17 -73
33 -143 35 -155 3 -11 7 -30 10 -42 2 -11 32 -146 65 -300 34 -153 68 -306 75
-339 17 -70 35 -152 41 -180 21 -103 108 -469 161 -675 36 -140 67 -259 68
-265 17 -68 46 -169 121 -420 281 -935 594 -1576 924 -1893 174 -167 501 -380
740 -482 53 -23 105 -45 116 -50 32 -15 198 -68 225 -73 14 -3 45 -10 70 -17
25 -7 54 -14 65 -16 11 -1 47 -8 80 -13 111 -19 199 -26 350 -26 182 1 260 8
440 44 134 26 375 121 510 199 61 36 211 138 231 157 6 5 33 28 60 50 27 22
93 85 147 139 264 267 463 580 598 941 17 44 35 91 41 105 19 45 88 283 118
405 28 115 34 141 45 203 3 15 8 37 10 50 9 36 32 179 45 267 6 44 13 93 16
109 3 15 7 49 9 75 2 25 6 60 9 76 4 27 14 123 21 210 1 17 6 80 10 140 3 61
8 133 10 160 2 28 6 169 10 315 l7 266 -230 -1 c-127 0 -233 -2 -235 -5 -3 -3
-8 -32 -12 -65 -6 -59 -10 -91 -21 -170 -9 -65 -14 -99 -19 -115 -2 -8 -6 -33
-10 -55 -8 -60 -34 -180 -55 -265 -188 -738 -559 -1180 -1108 -1320 -94 -24
-122 -29 -192 -36 -30 -2 -65 -7 -77 -10 -31 -6 -225 -6 -293 1 -237 24 -539
126 -703 239 -21 14 -40 26 -43 26 -2 0 -35 23 -72 52 -203 155 -332 287 -491
503 -87 118 -137 195 -189 290 -98 180 -192 381 -267 571 -20 49 -39 98 -44
109 -10 22 -22 54 -27 70 -2 6 -21 60 -44 120 -37 100 -167 489 -175 525 -2 8
-20 69 -40 135 -40 129 -64 211 -69 235 -2 8 -25 91 -51 184 -42 153 -166 644
-179 706 -3 14 -16 75 -31 135 -14 61 -34 151 -45 200 -11 50 -49 221 -85 380
-67 297 -71 315 -80 363 -3 15 -11 45 -17 67 -5 22 -12 51 -15 65 -2 14 -11
54 -19 90 -9 36 -18 76 -20 90 -3 14 -11 52 -19 85 -14 58 -162 719 -171 760
-2 11 -22 101 -44 200 -23 99 -43 189 -45 200 -3 11 -11 49 -19 85 -8 36 -29
128 -46 205 -17 77 -36 160 -41 185 -6 25 -14 63 -19 85 -5 22 -17 72 -26 110
-9 39 -18 79 -20 90 -2 11 -33 151 -69 310 -56 249 -97 433 -110 494 -2 9 -36
158 -75 331 -39 173 -72 325 -75 338 -2 12 -6 30 -9 40 -3 9 -7 28 -10 42 -3
14 -8 36 -11 50 -3 14 -10 43 -14 65 -14 65 -115 509 -187 825 -8 36 -17 76
-20 89 -3 12 -12 53 -20 90 -9 36 -17 73 -19 81 -101 437 -156 674 -160 690
-2 8 -11 47 -20 85 -28 125 -55 238 -150 630 -58 239 -55 225 -61 255 -5 25
-10 46 -39 160 -9 36 -18 74 -21 85 -2 11 -18 74 -34 140 -17 66 -33 130 -36
143 -2 12 -21 84 -40 160 -20 75 -37 144 -39 152 -2 8 -10 42 -19 75 -9 33
-18 67 -20 75 -113 459 -294 1094 -451 1590 -104 328 -252 688 -417 1020 -93
186 -113 224 -211 385 -131 214 -339 465 -522 626 -125 110 -338 255 -483 328
-143 72 -361 145 -500 166 -23 4 -54 9 -70 11 -33 6 -339 14 -344 9z"/>
</g>
</svg>
